<?xml version="1.0" encoding="UTF-8"?>
<svg xmlns="http://www.w3.org/2000/svg" xmlns:xlink="http://www.w3.org/1999/xlink" width="50pt" height="43pt" viewBox="0 0 50 43" version="1.1">
<g id="surface1">
<path style=" stroke:none;fill-rule:nonzero;fill:rgb(100%,48.235294%,0%);fill-opacity:1;" d="M 48.058594 16.121094 C 47.792969 15.867188 47.351562 15.816406 47.019531 16 L 44.886719 17.179688 L 44.886719 2.3125 C 44.824219 1.464844 43.976562 0.824219 42.988281 0.878906 C 42.976562 0.878906 42.96875 0.878906 42.957031 0.878906 L 5.9375 0.878906 C 4.953125 0.808594 4.089844 1.441406 4.007812 2.285156 C 4.007812 2.296875 4.007812 2.304688 4.007812 2.3125 L 4.007812 16.585938 L 2.984375 16.019531 C 2.640625 15.804688 2.160156 15.859375 1.886719 16.140625 C 0.640625 17.449219 -0.0273438 19.09375 0 20.785156 L 0 35.527344 C 0.0429688 38.71875 2.0625 42.125 7.714844 42.125 L 42.308594 42.125 C 46.019531 42.125 49.992188 40.390625 49.992188 35.519531 L 49.992188 20.785156 C 50.082031 19.074219 49.390625 17.398438 48.058594 16.121094 Z M 5.9375 2.296875 L 42.980469 2.296875 C 43.15625 2.296875 43.253906 2.351562 43.253906 2.296875 L 43.253906 18.125 L 25.011719 28.296875 L 5.664062 17.511719 L 5.640625 2.378906 C 5.722656 2.320312 5.832031 2.289062 5.9375 2.296875 Z M 1.964844 37.105469 C 1.816406 36.589844 1.738281 36.058594 1.734375 35.527344 L 1.703125 20.785156 C 1.691406 19.652344 2.046875 18.542969 2.734375 17.578125 L 18.515625 26.371094 Z M 42.308594 40.710938 L 42.296875 40.699219 L 7.714844 40.699219 C 4.839844 40.699219 3.328125 39.652344 2.546875 38.464844 L 19.976562 27.164062 L 24.5625 29.722656 C 24.671875 29.769531 24.792969 29.796875 24.914062 29.800781 C 25.035156 29.796875 25.15625 29.769531 25.265625 29.722656 L 29.730469 27.230469 L 47.226562 38.558594 C 46.085938 39.914062 44.257812 40.714844 42.308594 40.710938 Z M 48.335938 20.777344 L 48.324219 35.519531 C 48.328125 36.089844 48.246094 36.664062 48.082031 37.21875 L 31.410156 26.429688 L 47.304688 17.566406 C 48.023438 18.519531 48.382812 19.640625 48.335938 20.777344 Z M 48.335938 20.777344 "/>
<path style=" stroke:none;fill-rule:nonzero;fill:rgb(100%,48.235294%,0%);fill-opacity:1;" d="M 28.441406 6.5 C 24.730469 4.863281 20.179688 6.121094 18.273438 9.3125 C 17.726562 10.230469 17.441406 11.25 17.441406 12.28125 C 17.464844 15.863281 20.847656 18.75 25.011719 18.746094 C 25.628906 18.746094 26.238281 18.679688 26.835938 18.546875 C 27.054688 18.523438 27.25 18.410156 27.363281 18.246094 C 27.472656 18.089844 27.496094 17.898438 27.425781 17.726562 C 27.40625 17.578125 27.316406 17.441406 27.175781 17.351562 C 26.980469 17.234375 26.734375 17.195312 26.503906 17.246094 C 26.019531 17.351562 25.523438 17.394531 25.023438 17.378906 C 21.726562 17.382812 19.046875 15.089844 19.042969 12.253906 C 19.035156 9.417969 21.703125 7.113281 25 7.109375 C 28.300781 7.105469 30.976562 9.398438 30.984375 12.234375 C 30.992188 13.054688 30.761719 13.863281 30.3125 14.585938 C 30.113281 14.925781 29.777344 15.199219 29.371094 15.359375 L 29.207031 15.359375 C 28.976562 15.359375 28.964844 14.839844 28.964844 14.839844 L 28.964844 12.253906 C 29.078125 10.367188 27.394531 8.761719 25.207031 8.660156 C 23.015625 8.5625 21.144531 10.007812 21.027344 11.894531 C 21.023438 12.011719 21.023438 12.132812 21.027344 12.253906 C 20.984375 14.1875 22.765625 15.789062 25.011719 15.839844 C 25.890625 15.84375 26.742188 15.578125 27.417969 15.09375 L 27.417969 15.140625 C 27.421875 15.5 27.558594 15.847656 27.800781 16.140625 C 28.132812 16.519531 28.65625 16.734375 29.207031 16.71875 C 29.371094 16.738281 29.535156 16.738281 29.699219 16.71875 C 30.550781 16.476562 31.265625 15.972656 31.707031 15.300781 L 31.707031 15.246094 C 33.613281 12.054688 32.148438 8.140625 28.441406 6.5 Z M 25.011719 14.460938 L 25.023438 14.472656 C 23.679688 14.4375 22.621094 13.46875 22.660156 12.3125 C 22.664062 12.296875 22.664062 12.277344 22.664062 12.261719 C 22.601562 11.089844 23.652344 10.097656 25.011719 10.035156 C 26.375 10.101562 27.433594 11.089844 27.394531 12.261719 C 27.4375 13.433594 26.375 14.414062 25.011719 14.460938 Z M 25.011719 14.460938 "/>
</g>
</svg>
