<?xml version="1.0" encoding="UTF-8"?>
<svg xmlns="http://www.w3.org/2000/svg" xmlns:xlink="http://www.w3.org/1999/xlink" width="50pt" height="43pt" viewBox="0 0 50 43" version="1.1">
<g id="surface1">
<path style=" stroke:none;fill-rule:nonzero;fill:rgb(100%,48.235294%,0%);fill-opacity:1;" d="M 48.6875 33.171875 L 38.566406 27.367188 C 37.285156 26.636719 35.5625 26.878906 34.613281 27.921875 L 31.664062 31.179688 C 31.285156 31.609375 30.597656 31.734375 30.050781 31.472656 L 29.488281 31.207031 C 27.628906 30.335938 25.316406 29.25 20.65625 25.242188 C 15.996094 21.230469 14.730469 19.242188 13.71875 17.644531 L 13.410156 17.164062 C 13.101562 16.691406 13.246094 16.097656 13.746094 15.769531 L 17.53125 13.234375 C 18.746094 12.417969 19.023438 10.9375 18.175781 9.832031 L 11.425781 1.128906 C 10.558594 0.00390625 8.8125 -0.332031 7.464844 0.363281 L 3.234375 2.550781 C 1.902344 3.222656 0.929688 4.308594 0.511719 5.585938 C -1.011719 10.363281 0.132812 18.605469 14.25 30.746094 C 25.480469 40.402344 33.839844 43 39.585938 43 C 40.90625 43.003906 42.226562 42.855469 43.5 42.558594 C 44.988281 42.199219 46.253906 41.359375 47.035156 40.21875 L 49.578125 36.582031 C 50.390625 35.421875 49.996094 33.921875 48.6875 33.171875 Z M 48.144531 35.84375 L 45.605469 39.484375 C 45.042969 40.308594 44.132812 40.917969 43.0625 41.179688 C 37.9375 42.386719 28.980469 41.386719 15.429688 29.730469 C 1.878906 18.078125 0.710938 10.375 2.117188 5.964844 C 2.421875 5.046875 3.128906 4.261719 4.089844 3.777344 L 8.324219 1.59375 C 8.90625 1.292969 9.664062 1.4375 10.042969 1.925781 L 13.707031 6.660156 L 16.785156 10.628906 C 17.152344 11.109375 17.03125 11.75 16.507812 12.105469 L 12.71875 14.640625 C 11.566406 15.398438 11.234375 16.769531 11.945312 17.859375 L 12.246094 18.328125 C 13.3125 20.007812 14.636719 22.097656 19.46875 26.253906 C 24.300781 30.410156 26.730469 31.550781 28.683594 32.464844 L 29.230469 32.722656 C 30.496094 33.335938 32.09375 33.050781 32.972656 32.058594 L 35.921875 28.800781 C 36.332031 28.351562 37.078125 28.246094 37.636719 28.5625 L 47.757812 34.367188 C 48.324219 34.691406 48.496094 35.34375 48.144531 35.84375 Z M 48.144531 35.84375 "/>
<path style=" stroke:none;fill-rule:nonzero;fill:rgb(100%,48.235294%,0%);fill-opacity:1;" d="M 28.332031 7.171875 C 36.152344 7.179688 42.488281 12.628906 42.496094 19.351562 C 42.496094 19.746094 42.871094 20.070312 43.328125 20.070312 C 43.789062 20.070312 44.164062 19.746094 44.164062 19.351562 C 44.152344 11.835938 37.070312 5.746094 28.332031 5.738281 C 27.871094 5.738281 27.5 6.058594 27.5 6.453125 C 27.5 6.847656 27.871094 7.171875 28.332031 7.171875 Z M 28.332031 7.171875 "/>
<path style=" stroke:none;fill-rule:nonzero;fill:rgb(100%,48.235294%,0%);fill-opacity:1;" d="M 28.332031 11.46875 C 33.390625 11.476562 37.492188 15 37.496094 19.351562 C 37.496094 19.746094 37.871094 20.070312 38.332031 20.070312 C 38.789062 20.070312 39.164062 19.746094 39.164062 19.351562 C 39.15625 14.210938 34.3125 10.042969 28.332031 10.035156 C 27.871094 10.035156 27.5 10.359375 27.5 10.753906 C 27.5 11.148438 27.871094 11.46875 28.332031 11.46875 Z M 28.332031 11.46875 "/>
<path style=" stroke:none;fill-rule:nonzero;fill:rgb(100%,48.235294%,0%);fill-opacity:1;" d="M 28.332031 15.769531 C 30.632812 15.769531 32.496094 17.375 32.496094 19.351562 C 32.496094 19.746094 32.871094 20.070312 33.332031 20.070312 C 33.792969 20.070312 34.164062 19.746094 34.164062 19.351562 C 34.160156 16.582031 31.550781 14.339844 28.332031 14.335938 C 27.871094 14.335938 27.5 14.65625 27.5 15.050781 C 27.5 15.449219 27.871094 15.769531 28.332031 15.769531 Z M 28.332031 15.769531 "/>
</g>
</svg>
