<?xml version="1.0" encoding="UTF-8"?>
<svg xmlns="http://www.w3.org/2000/svg" xmlns:xlink="http://www.w3.org/1999/xlink" width="50pt" height="43pt" viewBox="0 0 50 43" version="1.1">
<g id="surface1">
<path style=" stroke:none;fill-rule:nonzero;fill:rgb(100%,48.235294%,0%);fill-opacity:1;" d="M 25 0 C 15.308594 0 7.421875 6.78125 7.421875 15.117188 C 7.421875 17.933594 8.328125 20.683594 10.046875 23.066406 L 24 42.40625 C 24.265625 42.773438 24.738281 43 25.242188 43 C 25.246094 43 25.25 43 25.253906 43 C 25.765625 42.996094 26.238281 42.765625 26.5 42.386719 L 40.097656 22.863281 C 41.722656 20.527344 42.578125 17.851562 42.578125 15.117188 C 42.578125 6.78125 34.691406 0 25 0 Z M 37.585938 21.570312 L 25.222656 39.320312 L 12.535156 21.738281 C 11.105469 19.753906 10.332031 17.464844 10.332031 15.117188 C 10.332031 8.171875 16.921875 2.503906 25 2.503906 C 33.078125 2.503906 39.65625 8.171875 39.65625 15.117188 C 39.65625 17.394531 38.933594 19.625 37.585938 21.570312 Z M 37.585938 21.570312 "/>
<path style=" stroke:none;fill-rule:nonzero;fill:rgb(100%,48.235294%,0%);fill-opacity:1;" d="M 25 7.558594 C 20.152344 7.558594 16.210938 10.949219 16.210938 15.117188 C 16.210938 19.257812 20.089844 22.675781 25 22.675781 C 29.972656 22.675781 33.789062 19.210938 33.789062 15.117188 C 33.789062 10.949219 29.847656 7.558594 25 7.558594 Z M 25 20.171875 C 21.753906 20.171875 19.121094 17.902344 19.121094 15.117188 C 19.121094 12.339844 21.769531 10.0625 25 10.0625 C 28.230469 10.0625 30.871094 12.339844 30.871094 15.117188 C 30.871094 17.863281 28.300781 20.171875 25 20.171875 Z M 25 20.171875 "/>
</g>
</svg>
