<?xml version="1.0" encoding="UTF-8"?>
<svg xmlns="http://www.w3.org/2000/svg" xmlns:xlink="http://www.w3.org/1999/xlink" width="50pt" height="43pt" viewBox="0 0 50 43" version="1.1">
<g id="surface1">
<path style=" stroke:none;fill-rule:nonzero;fill:rgb(100%,48.235294%,0%);fill-opacity:1;" d="M 47.070312 24.542969 L 47.070312 3.863281 C 47.070312 3.167969 46.414062 2.601562 45.605469 2.601562 L 38.183594 2.601562 L 38.183594 1.257812 C 38.183594 0.5625 37.527344 0 36.71875 0 C 35.910156 0 35.253906 0.5625 35.253906 1.257812 L 35.253906 2.601562 L 29.394531 2.601562 L 29.394531 1.257812 C 29.394531 0.5625 28.738281 0 27.929688 0 C 27.121094 0 26.464844 0.5625 26.464844 1.257812 L 26.464844 2.601562 L 20.605469 2.601562 L 20.605469 1.257812 C 20.605469 0.5625 19.949219 0 19.140625 0 C 18.332031 0 17.675781 0.5625 17.675781 1.257812 L 17.675781 2.601562 L 11.816406 2.601562 L 11.816406 1.257812 C 11.816406 0.5625 11.160156 0 10.351562 0 C 9.542969 0 8.886719 0.5625 8.886719 1.257812 L 8.886719 2.601562 L 1.464844 2.601562 C 0.65625 2.601562 0 3.167969 0 3.863281 L 0 36.703125 C 0 37.398438 0.65625 37.960938 1.464844 37.960938 L 25.859375 37.960938 C 28.226562 40.996094 32.253906 43 36.816406 43 C 44.085938 43 50 37.914062 50 31.664062 C 50 28.96875 48.902344 26.492188 47.070312 24.542969 Z M 8.886719 5.125 L 8.886719 6.382812 C 8.886719 7.078125 9.542969 7.640625 10.351562 7.640625 C 11.160156 7.640625 11.816406 7.078125 11.816406 6.382812 L 11.816406 5.125 L 17.675781 5.125 L 17.675781 6.382812 C 17.675781 7.078125 18.332031 7.640625 19.140625 7.640625 C 19.949219 7.640625 20.605469 7.078125 20.605469 6.382812 L 20.605469 5.125 L 26.464844 5.125 L 26.464844 6.382812 C 26.464844 7.078125 27.121094 7.640625 27.929688 7.640625 C 28.738281 7.640625 29.394531 7.078125 29.394531 6.382812 L 29.394531 5.125 L 35.253906 5.125 L 35.253906 6.382812 C 35.253906 7.078125 35.910156 7.640625 36.71875 7.640625 C 37.527344 7.640625 38.183594 7.078125 38.183594 6.382812 L 38.183594 5.125 L 44.140625 5.125 L 44.140625 10.164062 L 2.929688 10.164062 L 2.929688 5.125 Z M 2.929688 35.441406 L 2.929688 12.679688 L 44.140625 12.679688 L 44.140625 22.238281 C 42.042969 21.03125 39.523438 20.324219 36.816406 20.324219 C 32.1875 20.324219 28.109375 22.386719 25.757812 25.5 C 25.558594 25.414062 25.335938 25.363281 25.097656 25.363281 L 22.167969 25.363281 C 21.359375 25.363281 20.703125 25.925781 20.703125 26.625 C 20.703125 27.320312 21.359375 27.882812 22.167969 27.882812 L 24.386719 27.882812 C 24.054688 28.683594 23.828125 29.527344 23.714844 30.402344 L 22.167969 30.402344 C 21.359375 30.402344 20.703125 30.964844 20.703125 31.664062 C 20.703125 32.359375 21.359375 32.921875 22.167969 32.921875 L 23.714844 32.921875 C 23.828125 33.796875 24.054688 34.640625 24.386719 35.441406 Z M 36.816406 40.480469 C 31.164062 40.480469 26.5625 36.523438 26.5625 31.664062 C 26.5625 26.800781 31.164062 22.84375 36.816406 22.84375 C 42.46875 22.84375 47.070312 26.800781 47.070312 31.664062 C 47.070312 36.523438 42.46875 40.480469 36.816406 40.480469 Z M 36.816406 40.480469 "/>
<path style=" stroke:none;fill-rule:nonzero;fill:rgb(100%,48.235294%,0%);fill-opacity:1;" d="M 42.675781 30.402344 L 38.28125 30.402344 L 38.28125 26.625 C 38.28125 25.925781 37.625 25.363281 36.816406 25.363281 C 36.007812 25.363281 35.351562 25.925781 35.351562 26.625 L 35.351562 31.664062 C 35.351562 32.359375 36.007812 32.921875 36.816406 32.921875 L 42.675781 32.921875 C 43.484375 32.921875 44.140625 32.359375 44.140625 31.664062 C 44.140625 30.964844 43.484375 30.402344 42.675781 30.402344 Z M 42.675781 30.402344 "/>
<path style=" stroke:none;fill-rule:nonzero;fill:rgb(100%,48.235294%,0%);fill-opacity:1;" d="M 13.28125 15.285156 L 10.351562 15.285156 C 9.542969 15.285156 8.886719 15.847656 8.886719 16.546875 C 8.886719 17.242188 9.542969 17.804688 10.351562 17.804688 L 13.28125 17.804688 C 14.089844 17.804688 14.746094 17.242188 14.746094 16.546875 C 14.746094 15.847656 14.089844 15.285156 13.28125 15.285156 Z M 13.28125 15.285156 "/>
<path style=" stroke:none;fill-rule:nonzero;fill:rgb(100%,48.235294%,0%);fill-opacity:1;" d="M 13.28125 20.324219 L 10.351562 20.324219 C 9.542969 20.324219 8.886719 20.886719 8.886719 21.585938 C 8.886719 22.28125 9.542969 22.84375 10.351562 22.84375 L 13.28125 22.84375 C 14.089844 22.84375 14.746094 22.28125 14.746094 21.585938 C 14.746094 20.886719 14.089844 20.324219 13.28125 20.324219 Z M 13.28125 20.324219 "/>
<path style=" stroke:none;fill-rule:nonzero;fill:rgb(100%,48.235294%,0%);fill-opacity:1;" d="M 13.28125 25.363281 L 10.351562 25.363281 C 9.542969 25.363281 8.886719 25.925781 8.886719 26.625 C 8.886719 27.320312 9.542969 27.882812 10.351562 27.882812 L 13.28125 27.882812 C 14.089844 27.882812 14.746094 27.320312 14.746094 26.625 C 14.746094 25.925781 14.089844 25.363281 13.28125 25.363281 Z M 13.28125 25.363281 "/>
<path style=" stroke:none;fill-rule:nonzero;fill:rgb(100%,48.235294%,0%);fill-opacity:1;" d="M 22.167969 17.804688 L 25.097656 17.804688 C 25.90625 17.804688 26.5625 17.242188 26.5625 16.546875 C 26.5625 15.847656 25.90625 15.285156 25.097656 15.285156 L 22.167969 15.285156 C 21.359375 15.285156 20.703125 15.847656 20.703125 16.546875 C 20.703125 17.242188 21.359375 17.804688 22.167969 17.804688 Z M 22.167969 17.804688 "/>
<path style=" stroke:none;fill-rule:nonzero;fill:rgb(100%,48.235294%,0%);fill-opacity:1;" d="M 22.167969 22.84375 L 25.097656 22.84375 C 25.90625 22.84375 26.5625 22.28125 26.5625 21.585938 C 26.5625 20.886719 25.90625 20.324219 25.097656 20.324219 L 22.167969 20.324219 C 21.359375 20.324219 20.703125 20.886719 20.703125 21.585938 C 20.703125 22.28125 21.359375 22.84375 22.167969 22.84375 Z M 22.167969 22.84375 "/>
<path style=" stroke:none;fill-rule:nonzero;fill:rgb(100%,48.235294%,0%);fill-opacity:1;" d="M 13.28125 30.402344 L 10.351562 30.402344 C 9.542969 30.402344 8.886719 30.964844 8.886719 31.664062 C 8.886719 32.359375 9.542969 32.921875 10.351562 32.921875 L 13.28125 32.921875 C 14.089844 32.921875 14.746094 32.359375 14.746094 31.664062 C 14.746094 30.964844 14.089844 30.402344 13.28125 30.402344 Z M 13.28125 30.402344 "/>
<path style=" stroke:none;fill-rule:nonzero;fill:rgb(100%,48.235294%,0%);fill-opacity:1;" d="M 33.886719 17.804688 L 36.816406 17.804688 C 37.625 17.804688 38.28125 17.242188 38.28125 16.546875 C 38.28125 15.847656 37.625 15.285156 36.816406 15.285156 L 33.886719 15.285156 C 33.078125 15.285156 32.421875 15.847656 32.421875 16.546875 C 32.421875 17.242188 33.078125 17.804688 33.886719 17.804688 Z M 33.886719 17.804688 "/>
</g>
</svg>
