<?xml version="1.0" encoding="UTF-8"?>
<svg xmlns="http://www.w3.org/2000/svg" xmlns:xlink="http://www.w3.org/1999/xlink" width="27pt" height="27pt" viewBox="0 0 27 27" version="1.1">
<g id="surface1">
<path style=" stroke:none;fill-rule:nonzero;fill:rgb(100%,48.235294%,0%);fill-opacity:1;" d="M 3.953125 27 L 12.761719 27 L 12.761719 17.402344 L 9.597656 17.402344 L 9.597656 14.238281 L 12.761719 14.238281 L 12.761719 10.28125 C 12.761719 8.101562 14.535156 6.328125 16.71875 6.328125 L 20.671875 6.328125 L 20.671875 9.492188 L 17.507812 9.492188 C 16.636719 9.492188 15.925781 10.203125 15.925781 11.074219 L 15.925781 14.238281 L 20.527344 14.238281 L 20 17.402344 L 15.925781 17.402344 L 15.925781 27 L 23.046875 27 C 25.226562 27 27 25.226562 27 23.046875 L 27 3.953125 C 27 1.773438 25.226562 0 23.046875 0 L 3.953125 0 C 1.773438 0 0 1.773438 0 3.953125 L 0 23.046875 C 0 25.226562 1.773438 27 3.953125 27 Z M 1.582031 3.953125 C 1.582031 2.648438 2.648438 1.582031 3.953125 1.582031 L 23.046875 1.582031 C 24.351562 1.582031 25.417969 2.648438 25.417969 3.953125 L 25.417969 23.046875 C 25.417969 24.351562 24.351562 25.417969 23.046875 25.417969 L 17.507812 25.417969 L 17.507812 18.984375 L 21.34375 18.984375 L 22.398438 12.65625 L 17.507812 12.65625 L 17.507812 11.074219 L 22.253906 11.074219 L 22.253906 4.746094 L 16.71875 4.746094 C 13.664062 4.746094 11.179688 7.230469 11.179688 10.28125 L 11.179688 12.65625 L 8.015625 12.65625 L 8.015625 18.984375 L 11.179688 18.984375 L 11.179688 25.417969 L 3.953125 25.417969 C 2.648438 25.417969 1.582031 24.351562 1.582031 23.046875 Z M 1.582031 3.953125 "/>
</g>
</svg>
