<?xml version="1.0" encoding="UTF-8"?>
<svg xmlns="http://www.w3.org/2000/svg" xmlns:xlink="http://www.w3.org/1999/xlink" width="27pt" height="27pt" viewBox="0 0 27 27" version="1.1">
<g id="surface1">
<path style=" stroke:none;fill-rule:nonzero;fill:rgb(100%,48.235294%,0%);fill-opacity:1;" d="M 3.953125 27 L 23.046875 27 C 25.226562 27 27 25.226562 27 23.046875 L 27 3.953125 C 27 1.773438 25.226562 0 23.046875 0 L 3.953125 0 C 1.773438 0 0 1.773438 0 3.953125 L 0 23.046875 C 0 25.226562 1.773438 27 3.953125 27 Z M 1.582031 3.953125 C 1.582031 2.648438 2.648438 1.582031 3.953125 1.582031 L 23.046875 1.582031 C 24.351562 1.582031 25.417969 2.648438 25.417969 3.953125 L 25.417969 23.046875 C 25.417969 24.351562 24.351562 25.417969 23.046875 25.417969 L 3.953125 25.417969 C 2.648438 25.417969 1.582031 24.351562 1.582031 23.046875 Z M 1.582031 3.953125 "/>
<path style=" stroke:none;fill-rule:nonzero;fill:rgb(100%,48.235294%,0%);fill-opacity:1;" d="M 13.5 20.617188 C 17.425781 20.617188 20.617188 17.425781 20.617188 13.5 C 20.617188 9.574219 17.425781 6.382812 13.5 6.382812 C 9.574219 6.382812 6.382812 9.574219 6.382812 13.5 C 6.382812 17.425781 9.574219 20.617188 13.5 20.617188 Z M 13.5 7.960938 C 16.554688 7.960938 19.039062 10.445312 19.039062 13.5 C 19.039062 16.554688 16.554688 19.039062 13.5 19.039062 C 10.445312 19.039062 7.960938 16.554688 7.960938 13.5 C 7.960938 10.445312 10.445312 7.960938 13.5 7.960938 Z M 13.5 7.960938 "/>
<path style=" stroke:none;fill-rule:nonzero;fill:rgb(100%,48.235294%,0%);fill-opacity:1;" d="M 21.410156 7.960938 C 22.71875 7.960938 23.78125 6.898438 23.78125 5.589844 C 23.78125 4.28125 22.71875 3.21875 21.410156 3.21875 C 20.101562 3.21875 19.039062 4.28125 19.039062 5.589844 C 19.039062 6.898438 20.101562 7.960938 21.410156 7.960938 Z M 21.410156 4.796875 C 21.847656 4.796875 22.203125 5.152344 22.203125 5.589844 C 22.203125 6.027344 21.847656 6.382812 21.410156 6.382812 C 20.972656 6.382812 20.617188 6.027344 20.617188 5.589844 C 20.617188 5.152344 20.972656 4.796875 21.410156 4.796875 Z M 21.410156 4.796875 "/>
</g>
</svg>
