<?xml version="1.0" encoding="UTF-8"?>
<svg xmlns="http://www.w3.org/2000/svg" xmlns:xlink="http://www.w3.org/1999/xlink" width="27pt" height="27pt" viewBox="0 0 27 27" version="1.1">
<g id="surface1">
<path style=" stroke:none;fill-rule:nonzero;fill:rgb(100%,48.235294%,0%);fill-opacity:1;" d="M 9.28125 20.101562 C 9.136719 20.101562 8.988281 20.0625 8.859375 19.988281 C 8.597656 19.835938 8.4375 19.558594 8.4375 19.257812 L 8.4375 7.59375 C 8.4375 7.292969 8.597656 7.015625 8.859375 6.863281 C 9.121094 6.714844 9.441406 6.710938 9.703125 6.863281 L 19.828125 12.691406 C 20.089844 12.839844 20.25 13.121094 20.25 13.421875 C 20.25 13.722656 20.089844 14.003906 19.828125 14.152344 L 9.703125 19.988281 C 9.570312 20.0625 9.425781 20.101562 9.28125 20.101562 Z M 10.125 9.054688 L 10.125 17.796875 L 17.714844 13.421875 C 17.714844 13.421875 10.125 9.054688 10.125 9.054688 Z M 10.125 9.054688 "/>
<path style=" stroke:none;fill-rule:nonzero;fill:rgb(100%,48.235294%,0%);fill-opacity:1;" d="M 13.5 27 C 6.054688 27 0 20.945312 0 13.5 C 0 6.054688 6.054688 0 13.5 0 C 20.945312 0 27 6.054688 27 13.5 C 27 20.945312 20.945312 27 13.5 27 Z M 13.5 1.6875 C 6.988281 1.6875 1.6875 6.988281 1.6875 13.5 C 1.6875 20.011719 6.988281 25.3125 13.5 25.3125 C 20.011719 25.3125 25.3125 20.011719 25.3125 13.5 C 25.3125 6.988281 20.011719 1.6875 13.5 1.6875 Z M 13.5 1.6875 "/>
</g>
</svg>
