<?xml version="1.0" encoding="UTF-8"?>
<svg xmlns="http://www.w3.org/2000/svg" xmlns:xlink="http://www.w3.org/1999/xlink" width="27pt" height="27pt" viewBox="0 0 27 27" version="1.1">
<g id="surface1">
<path style=" stroke:none;fill-rule:nonzero;fill:rgb(100%,48.235294%,0%);fill-opacity:1;" d="M 23.042969 3.957031 C 17.769531 -1.316406 9.230469 -1.320312 3.957031 3.957031 C -1.316406 9.230469 -1.320312 17.769531 3.957031 23.042969 C 9.230469 28.316406 17.769531 28.320312 23.042969 23.042969 C 28.316406 17.769531 28.320312 9.230469 23.042969 3.957031 Z M 22.480469 21.121094 C 21.847656 20.554688 21.175781 20.058594 20.464844 19.625 C 20.933594 18.003906 21.210938 16.21875 21.277344 14.359375 L 25.246094 14.359375 C 25.066406 16.863281 24.105469 19.210938 22.480469 21.121094 Z M 1.753906 14.359375 L 5.722656 14.359375 C 5.789062 16.21875 6.066406 18.003906 6.535156 19.625 C 5.824219 20.058594 5.152344 20.554688 4.519531 21.121094 C 2.894531 19.210938 1.933594 16.863281 1.753906 14.359375 Z M 4.519531 5.878906 C 5.152344 6.445312 5.824219 6.941406 6.535156 7.375 C 6.066406 8.996094 5.789062 10.78125 5.722656 12.640625 L 1.753906 12.640625 C 1.933594 10.136719 2.894531 7.789062 4.519531 5.878906 Z M 12.640625 7.550781 C 11.238281 7.449219 9.882812 7.105469 8.628906 6.535156 C 9.359375 4.65625 10.703125 2.40625 12.640625 1.847656 Z M 12.640625 9.273438 L 12.640625 12.640625 L 7.441406 12.640625 C 7.503906 11.070312 7.726562 9.5625 8.09375 8.179688 C 9.519531 8.804688 11.054688 9.175781 12.640625 9.273438 Z M 12.640625 14.359375 L 12.640625 17.726562 C 11.054688 17.824219 9.519531 18.195312 8.09375 18.820312 C 7.726562 17.4375 7.503906 15.929688 7.441406 14.359375 Z M 12.640625 19.449219 L 12.640625 25.152344 C 10.703125 24.59375 9.359375 22.34375 8.628906 20.464844 C 9.882812 19.894531 11.238281 19.550781 12.640625 19.449219 Z M 14.359375 19.449219 C 15.761719 19.550781 17.117188 19.894531 18.371094 20.464844 C 17.640625 22.34375 16.296875 24.59375 14.359375 25.152344 Z M 14.359375 17.726562 L 14.359375 14.359375 L 19.558594 14.359375 C 19.496094 15.929688 19.273438 17.4375 18.90625 18.820312 C 17.480469 18.195312 15.945312 17.824219 14.359375 17.726562 Z M 14.359375 12.640625 L 14.359375 9.273438 C 15.945312 9.175781 17.480469 8.804688 18.90625 8.179688 C 19.273438 9.5625 19.496094 11.070312 19.558594 12.640625 Z M 14.359375 7.550781 L 14.359375 1.847656 C 16.296875 2.40625 17.640625 4.65625 18.371094 6.535156 C 17.117188 7.105469 15.761719 7.449219 14.359375 7.550781 Z M 18.222656 2.707031 C 19.324219 3.1875 20.351562 3.839844 21.273438 4.652344 C 20.835938 5.039062 20.371094 5.390625 19.886719 5.703125 C 19.460938 4.640625 18.910156 3.609375 18.222656 2.707031 Z M 7.109375 5.703125 C 6.628906 5.390625 6.164062 5.039062 5.726562 4.652344 C 6.648438 3.839844 7.675781 3.1875 8.777344 2.707031 C 8.089844 3.609375 7.539062 4.640625 7.109375 5.703125 Z M 7.113281 21.296875 C 7.539062 22.359375 8.089844 23.390625 8.777344 24.292969 C 7.675781 23.8125 6.648438 23.160156 5.726562 22.347656 C 6.164062 21.960938 6.628906 21.609375 7.113281 21.296875 Z M 19.886719 21.296875 C 20.371094 21.609375 20.835938 21.960938 21.273438 22.347656 C 20.351562 23.160156 19.324219 23.8125 18.222656 24.292969 C 18.910156 23.390625 19.460938 22.359375 19.886719 21.296875 Z M 21.277344 12.640625 C 21.210938 10.78125 20.933594 8.996094 20.464844 7.375 C 21.175781 6.941406 21.847656 6.445312 22.480469 5.878906 C 24.105469 7.789062 25.066406 10.136719 25.246094 12.640625 Z M 21.277344 12.640625 "/>
</g>
</svg>
